<?xml version="1.0" encoding="utf-8"?>
<!-- Generator: Adobe Illustrator 24.0.1, SVG Export Plug-In . SVG Version: 6.00 Build 0)  -->
<svg version="1.1" id="Layer_1" xmlns="http://www.w3.org/2000/svg" xmlns:xlink="http://www.w3.org/1999/xlink" x="0px" y="0px"
	 viewBox="0 0 320 160" style="enable-background:new 0 0 320 160;" xml:space="preserve">
<style type="text/css">
	.st0{clip-path:url(#SVGID_2_);}
	.st1{clip-path:url(#SVGID_4_);fill:#2C3967;}
	.st2{fill:none;stroke:#FF5C87;stroke-width:2;stroke-miterlimit:10;}
	.st3{clip-path:url(#SVGID_6_);}
	.st4{clip-path:url(#SVGID_8_);fill:#FF5C87;}
	.st5{fill:none;stroke:#2C3967;stroke-width:3;stroke-linecap:round;stroke-miterlimit:10;}
	.st6{fill:none;stroke:#2C3967;stroke-width:3;stroke-linecap:round;stroke-miterlimit:10;stroke-dasharray:0,8.875;}
	.st7{fill:none;stroke:url(#SVGID_9_);stroke-width:3;stroke-linecap:round;stroke-miterlimit:10;stroke-dasharray:0,7.99;}
	.st8{fill:none;stroke:url(#SVGID_10_);stroke-width:3;stroke-linecap:round;stroke-miterlimit:10;stroke-dasharray:0,7.99;}
	.st9{clip-path:url(#SVGID_12_);}
	.st10{clip-path:url(#SVGID_14_);fill:#D8D8D8;}
	.st11{fill:none;stroke:url(#SVGID_15_);stroke-width:2;stroke-linecap:round;stroke-miterlimit:10;}
	.st12{fill:none;stroke:url(#SVGID_16_);stroke-width:2;stroke-linecap:square;stroke-miterlimit:10;}
	.st13{fill:none;stroke:url(#SVGID_17_);stroke-width:2;stroke-linecap:square;stroke-miterlimit:10;}
	.st14{fill:none;stroke:#FF5C87;stroke-width:3;stroke-linecap:round;stroke-linejoin:round;}
	.st15{fill:none;stroke:#FF5C87;stroke-width:3;stroke-linecap:round;stroke-linejoin:round;stroke-dasharray:0,9.5;}
	.st16{fill-rule:evenodd;clip-rule:evenodd;fill:#FF5C87;}
</style>
<g>
	<defs>
		<path id="SVGID_1_" d="M50.55,59.72c-2.5,0-4.52-2.02-4.52-4.52c0-2.5,2.02-4.52,4.52-4.52c2.5,0,4.52,2.02,4.52,4.52
			C55.07,57.7,53.05,59.72,50.55,59.72z"/>
	</defs>
	<clipPath id="SVGID_2_">
		<use xlink:href="#SVGID_1_"  style="overflow:visible;"/>
	</clipPath>
	<g class="st0">
		<defs>
			<rect id="SVGID_3_" x="-0.23" y="-518" width="320" height="7430"/>
		</defs>
		<clipPath id="SVGID_4_">
			<use xlink:href="#SVGID_3_"  style="overflow:visible;"/>
		</clipPath>
		<rect x="41.03" y="45.68" class="st1" width="19.04" height="19.04"/>
	</g>
</g>
<line class="st2" x1="93.93" y1="74.71" x2="115.06" y2="95.85"/>
<g>
	<defs>
		<polygon id="SVGID_5_" points="99.8,70.23 89.45,80.59 89.45,70.23 		"/>
	</defs>
	<clipPath id="SVGID_6_">
		<use xlink:href="#SVGID_5_"  style="overflow:visible;"/>
	</clipPath>
	<g class="st3">
		<defs>
			<rect id="SVGID_7_" x="-0.23" y="-518" width="320" height="7430"/>
		</defs>
		<clipPath id="SVGID_8_">
			<use xlink:href="#SVGID_7_"  style="overflow:visible;"/>
		</clipPath>
		<rect x="84.45" y="65.23" class="st4" width="20.35" height="20.35"/>
	</g>
</g>
<g>
	<g>
		<line class="st5" x1="70.4" y1="106.5" x2="70.4" y2="106.5"/>
		<line class="st6" x1="70.4" y1="97.63" x2="70.4" y2="75.44"/>
		<line class="st5" x1="70.4" y1="71" x2="70.4" y2="71"/>
	</g>
</g>
<linearGradient id="SVGID_9_" gradientUnits="userSpaceOnUse" x1="50.3971" y1="43" x2="50.3971" y2="4.5">
	<stop  offset="0" style="stop-color:#2C3967"/>
	<stop  offset="1" style="stop-color:#2C3967;stop-opacity:0"/>
</linearGradient>
<line class="st7" x1="50.4" y1="41.5" x2="50.4" y2="6"/>
<linearGradient id="SVGID_10_" gradientUnits="userSpaceOnUse" x1="37.8971" y1="55.5" x2="11" y2="55.5">
	<stop  offset="0" style="stop-color:#2C3967"/>
	<stop  offset="1" style="stop-color:#2C3967;stop-opacity:0"/>
</linearGradient>
<line class="st8" x1="36.4" y1="55.5" x2="12.5" y2="55.5"/>
<g>
	<defs>
		<line id="SVGID_11_" x1="29.98" y1="116.57" x2="29.98" y2="154.23"/>
	</defs>
	<clipPath id="SVGID_12_">
		<use xlink:href="#SVGID_11_"  style="overflow:visible;"/>
	</clipPath>
	<g class="st9">
		<defs>
			<rect id="SVGID_13_" x="-0.23" y="-518" width="320" height="7430"/>
		</defs>
		<clipPath id="SVGID_14_">
			<use xlink:href="#SVGID_13_"  style="overflow:visible;"/>
		</clipPath>
		<rect x="24.98" y="111.57" class="st10" width="10" height="47.67"/>
	</g>
</g>
<linearGradient id="SVGID_15_" gradientUnits="userSpaceOnUse" x1="29.9756" y1="115.5666" x2="29.9756" y2="153.1976">
	<stop  offset="0" style="stop-color:#2C3967"/>
	<stop  offset="1" style="stop-color:#2C3967;stop-opacity:0"/>
</linearGradient>
<line class="st11" x1="29.98" y1="116.57" x2="29.98" y2="152.2"/>
<linearGradient id="SVGID_16_" gradientUnits="userSpaceOnUse" x1="49.9756" y1="70" x2="49.9756" y2="153.1976">
	<stop  offset="0" style="stop-color:#2C3967"/>
	<stop  offset="1" style="stop-color:#2C3967;stop-opacity:0"/>
</linearGradient>
<line class="st12" x1="49.98" y1="71" x2="49.98" y2="152.2"/>
<linearGradient id="SVGID_17_" gradientUnits="userSpaceOnUse" x1="105.9756" y1="129" x2="105.9756" y2="367.6232" gradientTransform="matrix(6.123234e-17 -1 1 6.123234e-17 -61.6232 161.5744)">
	<stop  offset="0" style="stop-color:#2C3967"/>
	<stop  offset="1" style="stop-color:#2C3967;stop-opacity:0"/>
</linearGradient>
<line class="st13" x1="68.38" y1="55.6" x2="305" y2="55.6"/>
<g>
	<g>
		<line class="st14" x1="29.98" y1="85.5" x2="29.98" y2="85.5"/>
		<line class="st15" x1="29.98" y1="95" x2="29.98" y2="99.75"/>
		<line class="st14" x1="29.98" y1="104.5" x2="29.98" y2="104.5"/>
	</g>
</g>
<path class="st16" d="M32.99,74.38c0,1.66-1.35,3.01-3.01,3.01c-1.66,0-3.01-1.35-3.01-3.01c0-1.66,1.35-3.01,3.01-3.01
	C31.64,71.36,32.99,72.71,32.99,74.38"/>
<path class="st16" d="M32.99,116.57c0,1.66-1.35,3.01-3.01,3.01c-1.66,0-3.01-1.35-3.01-3.01s1.35-3.01,3.01-3.01
	C31.64,113.55,32.99,114.9,32.99,116.57"/>
</svg>
